<svg version="1.1" xmlns="http://www.w3.org/2000/svg" viewBox="0 0 242.3265320996935 329.9764667774985" width="242.3265320996935" height="329.9764667774985">
  <!-- svg-source:excalidraw -->
  
  <defs>
    <style class="style-fonts">
      @font-face {
        font-family: "Virgil";
        src: url("https://excalidraw.com/Virgil.woff2");
      }
      @font-face {
        font-family: "Cascadia";
        src: url("https://excalidraw.com/Cascadia.woff2");
      }
    </style>
  </defs>
  <g stroke-linecap="round"><g transform="translate(218.77013737296454 220.42998292497725) rotate(0 -98.21448795467876 -55.53339015193086)" fill-rule="evenodd"><path d="M0 0 L-0.99 15.39 L-3.91 35 L-9.96 52.75 L-19.33 68.77 L-32.73 80.93 L-49.8 89.98 L-71.1 95.89 L-94.5 98.81 L-118.67 99.19 L-130.69 98.18 L-141.83 96.06 L-161.95 89.34 L-170.82 84.15 L-178.4 76.94 L-184.64 68.94 L-189.73 60 L-193.65 47.48 L-195.17 39.06 L-197.99 -0.13 L-198.46 -36.7 L-197.66 -73.91 L-195.44 -104.72 L-190.85 -127.86 L-184.27 -146.86 L-169.89 -180.08 L-168.5 -182.18 L-166.5 -182.93 L-171.51 -191.34 L-173.58 -199.32 L-170.93 -206.32 L-165.07 -209.99 L-159.06 -210.03 L-154.18 -206.95 L-148.89 -200.89 L-144.19 -196.89 L-144.93 -197.16 L-144.33 -197.85 L-140.27 -198.92 L-118.64 -203.37 L-104.88 -205.68 L-92.31 -206.84 L-69.59 -204.81 L-50.67 -201.03 L-44.22 -199.38 L-31.36 -193.98 L-25.15 -201.75 L-20.18 -205.67 L-14.91 -207.29 L-8.53 -205.35 L-5.18 -200.41 L-4.85 -197.02 L-5.84 -192.74 L-13 -179.74 L-12.31 -179.64 L-8.56 -173.3 L-5.06 -161.47 L-1.09 -138.23 L1.86 -104.07 L1.97 -78.9 L0 0" stroke="none" stroke-width="0" fill="#ffcaca" fill-rule="evenodd"></path><path d="M0 0 C-0.65 5.83, -0.69 23.53, -3.91 35 C-7.13 46.46, -11.68 59.61, -19.33 68.77 C-26.98 77.94, -37.27 84.97, -49.8 89.98 C-62.33 94.98, -79.16 97.8, -94.5 98.81 C-109.84 99.83, -127.85 99.71, -141.83 96.06 C-155.81 92.42, -169.31 88.16, -178.4 76.94 C-187.49 65.72, -193.54 59.03, -196.38 28.76 C-199.22 -1.52, -199.41 -71.02, -195.44 -104.72 C-191.47 -138.42, -177.26 -160.49, -172.56 -173.45 C-167.87 -186.4, -168.2 -180.8, -167.27 -182.44 C-166.33 -184.08, -166.26 -181.81, -166.97 -183.3 C-167.68 -184.78, -170.41 -188.67, -171.51 -191.34 C-172.61 -194.01, -173.67 -196.82, -173.58 -199.32 C-173.48 -201.81, -172.35 -204.54, -170.93 -206.32 C-169.51 -208.1, -167.05 -209.37, -165.07 -209.99 C-163.09 -210.61, -160.88 -210.53, -159.06 -210.03 C-157.25 -209.52, -155.88 -208.47, -154.18 -206.95 C-152.49 -205.43, -150.56 -202.57, -148.89 -200.89 C-147.22 -199.21, -145.63 -197.22, -144.19 -196.89 C-142.75 -196.56, -148.91 -197.26, -140.27 -198.92 C-131.62 -200.58, -107.24 -206.49, -92.31 -206.84 C-77.37 -207.19, -60.54 -203.01, -50.67 -201.03 C-40.8 -199.04, -36.37 -195.98, -33.1 -194.92 C-29.83 -193.87, -32.39 -193.54, -31.07 -194.68 C-29.74 -195.82, -26.96 -199.92, -25.15 -201.75 C-23.33 -203.59, -21.88 -204.75, -20.18 -205.67 C-18.47 -206.6, -16.85 -207.34, -14.91 -207.29 C-12.97 -207.23, -10.15 -206.5, -8.53 -205.35 C-6.91 -204.21, -5.63 -202.51, -5.18 -200.41 C-4.73 -198.31, -4.54 -196.03, -5.84 -192.74 C-7.13 -189.44, -12.01 -183.06, -12.94 -180.65 C-13.86 -178.23, -12.7 -181.45, -11.39 -178.26 C-10.07 -175.06, -7.27 -173.84, -5.06 -161.47 C-2.86 -149.11, 1.02 -130.98, 1.86 -104.07 C2.71 -77.16, 0.31 -17.35, 0 0 M0 0 C-0.65 5.83, -0.69 23.53, -3.91 35 C-7.13 46.46, -11.68 59.61, -19.33 68.77 C-26.98 77.94, -37.27 84.97, -49.8 89.98 C-62.33 94.98, -79.16 97.8, -94.5 98.81 C-109.84 99.83, -127.85 99.71, -141.83 96.06 C-155.81 92.42, -169.31 88.16, -178.4 76.94 C-187.49 65.72, -193.54 59.03, -196.38 28.76 C-199.22 -1.52, -199.41 -71.02, -195.44 -104.72 C-191.47 -138.42, -177.26 -160.49, -172.56 -173.45 C-167.87 -186.4, -168.2 -180.8, -167.27 -182.44 C-166.33 -184.08, -166.26 -181.81, -166.97 -183.3 C-167.68 -184.78, -170.41 -188.67, -171.51 -191.34 C-172.61 -194.01, -173.67 -196.82, -173.58 -199.32 C-173.48 -201.81, -172.35 -204.54, -170.93 -206.32 C-169.51 -208.1, -167.05 -209.37, -165.07 -209.99 C-163.09 -210.61, -160.88 -210.53, -159.06 -210.03 C-157.25 -209.52, -155.88 -208.47, -154.18 -206.95 C-152.49 -205.43, -150.56 -202.57, -148.89 -200.89 C-147.22 -199.21, -145.63 -197.22, -144.19 -196.89 C-142.75 -196.56, -148.91 -197.26, -140.27 -198.92 C-131.62 -200.58, -107.24 -206.49, -92.31 -206.84 C-77.37 -207.19, -60.54 -203.01, -50.67 -201.03 C-40.8 -199.04, -36.37 -195.98, -33.1 -194.92 C-29.83 -193.87, -32.39 -193.54, -31.07 -194.68 C-29.74 -195.82, -26.96 -199.92, -25.15 -201.75 C-23.33 -203.59, -21.88 -204.75, -20.18 -205.67 C-18.47 -206.6, -16.85 -207.34, -14.91 -207.29 C-12.97 -207.23, -10.15 -206.5, -8.53 -205.35 C-6.91 -204.21, -5.63 -202.51, -5.18 -200.41 C-4.73 -198.31, -4.54 -196.03, -5.84 -192.74 C-7.13 -189.44, -12.01 -183.06, -12.94 -180.65 C-13.86 -178.23, -12.7 -181.45, -11.39 -178.26 C-10.07 -175.06, -7.27 -173.84, -5.06 -161.47 C-2.86 -149.11, 1.02 -130.98, 1.86 -104.07 C2.71 -77.16, 0.31 -17.35, 0 0" stroke="#000000" stroke-width="2" fill="none"></path></g></g><g stroke-linecap="round"><g transform="translate(218.77013737296454 220.61326415638302) rotate(0 -98.21448795467876 -53.96227258083616)"><path d="M0 0 C-0.65 5.83, -0.69 23.53, -3.91 35 C-7.13 46.46, -11.68 59.61, -19.33 68.77 C-26.98 77.94, -37.27 84.97, -49.8 89.98 C-62.33 94.98, -79.16 97.8, -94.5 98.81 C-109.84 99.83, -127.85 99.71, -141.83 96.06 C-155.81 92.42, -169.31 88.16, -178.4 76.94 C-187.49 65.72, -193.54 59.03, -196.38 28.76 C-199.22 -1.52, -199.41 -71.02, -195.44 -104.72 C-191.47 -138.42, -181.6 -157.82, -172.56 -173.45 C-163.53 -189.07, -154.58 -192.92, -141.21 -198.48 C-127.83 -204.05, -107.4 -206.41, -92.31 -206.84 C-77.22 -207.26, -60.54 -203.01, -50.67 -201.03 C-40.8 -199.04, -36.37 -195.98, -33.1 -194.92 C-29.83 -193.87, -32.39 -193.54, -31.07 -194.68 C-29.74 -195.82, -26.96 -199.92, -25.15 -201.75 C-23.33 -203.59, -21.88 -204.75, -20.18 -205.67 C-18.47 -206.6, -16.85 -207.34, -14.91 -207.29 C-12.97 -207.23, -10.15 -206.5, -8.53 -205.35 C-6.91 -204.21, -5.63 -202.51, -5.18 -200.41 C-4.73 -198.31, -4.54 -196.03, -5.84 -192.74 C-7.13 -189.44, -12.01 -183.06, -12.94 -180.65 C-13.86 -178.23, -12.7 -181.45, -11.39 -178.26 C-10.07 -175.06, -7.27 -173.84, -5.06 -161.47 C-2.86 -149.11, 1.02 -130.98, 1.86 -104.07 C2.71 -77.16, 0.31 -17.35, 0 0 M0 0 C-0.65 5.83, -0.69 23.53, -3.91 35 C-7.13 46.46, -11.68 59.61, -19.33 68.77 C-26.98 77.94, -37.27 84.97, -49.8 89.98 C-62.33 94.98, -79.16 97.8, -94.5 98.81 C-109.84 99.83, -127.85 99.71, -141.83 96.06 C-155.81 92.42, -169.31 88.16, -178.4 76.94 C-187.49 65.72, -193.54 59.03, -196.38 28.76 C-199.22 -1.52, -199.41 -71.02, -195.44 -104.72 C-191.47 -138.42, -181.6 -157.82, -172.56 -173.45 C-163.53 -189.07, -154.58 -192.92, -141.21 -198.48 C-127.83 -204.05, -107.4 -206.41, -92.31 -206.84 C-77.22 -207.26, -60.54 -203.01, -50.67 -201.03 C-40.8 -199.04, -36.37 -195.98, -33.1 -194.92 C-29.83 -193.87, -32.39 -193.54, -31.07 -194.68 C-29.74 -195.82, -26.96 -199.92, -25.15 -201.75 C-23.33 -203.59, -21.88 -204.75, -20.18 -205.67 C-18.47 -206.6, -16.85 -207.34, -14.91 -207.29 C-12.97 -207.23, -10.15 -206.5, -8.53 -205.35 C-6.91 -204.21, -5.63 -202.51, -5.18 -200.41 C-4.73 -198.31, -4.54 -196.03, -5.84 -192.74 C-7.13 -189.44, -12.01 -183.06, -12.94 -180.65 C-13.86 -178.23, -12.7 -181.45, -11.39 -178.26 C-10.07 -175.06, -7.27 -173.84, -5.06 -161.47 C-2.86 -149.11, 1.02 -130.98, 1.86 -104.07 C2.71 -77.16, 0.31 -17.35, 0 0" stroke="#000000" stroke-width="2" fill="none"></path></g></g><g stroke-linecap="round"><g transform="translate(180.25462339096157 23.564947796863066) rotate(0 14.074389000502208 9.684212615024478)"><path d="M0 0 C2.26 1.21, 9.34 4.56, 13.56 7.23 C17.78 9.9, 22.88 13.99, 25.31 16.01 C27.74 18.03, 27.68 18.81, 28.15 19.37 M0 0 C2.26 1.21, 9.34 4.56, 13.56 7.23 C17.78 9.9, 22.88 13.99, 25.31 16.01 C27.74 18.03, 27.68 18.81, 28.15 19.37" stroke="#000000" stroke-width="2" fill="none"></path></g></g><g stroke-linecap="round"><g transform="translate(197.00928568689244 32.34620078639489) rotate(0 2.1624065079736283 -5.504307474841937)"><path d="M0 0 C0.39 -0.85, 1.64 -3.28, 2.36 -5.11 C3.08 -6.95, 4 -10.03, 4.32 -11.01 M0 0 C0.39 -0.85, 1.64 -3.28, 2.36 -5.11 C3.08 -6.95, 4 -10.03, 4.32 -11.01" stroke="#000000" stroke-width="2" fill="none"></path></g></g><g stroke-linecap="round"><g transform="translate(207.09370630637625 26.8714495416599) rotate(0 -5.07106475790016 2.4965241885046794)"><path d="M0 0 C-0.83 0.21, -3.3 0.42, -4.99 1.25 C-6.68 2.08, -9.28 4.37, -10.14 4.99 M0 0 C-0.83 0.21, -3.3 0.42, -4.99 1.25 C-6.68 2.08, -9.28 4.37, -10.14 4.99" stroke="#000000" stroke-width="2" fill="none"></path></g></g><g stroke-opacity="0.5" fill-opacity="0.5" stroke-linecap="round" transform="translate(48.16645738839486 196.26801059095158) rotate(0 69.21963189020352 56.27422654608813)"><path d="M138.44 56.27 C138.44 58.54, 138.27 60.81, 137.93 63.06 C137.6 65.3, 137.09 67.55, 136.43 69.74 C135.76 71.94, 134.93 74.12, 133.94 76.23 C132.95 78.34, 131.8 80.42, 130.51 82.43 C129.22 84.43, 127.77 86.38, 126.19 88.24 C124.61 90.1, 122.88 91.9, 121.03 93.59 C119.19 95.28, 117.2 96.9, 115.12 98.4 C113.04 99.9, 110.83 101.3, 108.54 102.59 C106.25 103.87, 103.85 105.05, 101.39 106.1 C98.92 107.15, 96.37 108.09, 93.77 108.89 C91.16 109.69, 88.49 110.37, 85.78 110.91 C83.08 111.45, 80.32 111.87, 77.56 112.14 C74.8 112.41, 72 112.55, 69.22 112.55 C66.44 112.55, 63.64 112.41, 60.88 112.14 C58.12 111.87, 55.35 111.45, 52.65 110.91 C49.95 110.37, 47.27 109.69, 44.67 108.89 C42.07 108.09, 39.51 107.15, 37.05 106.1 C34.59 105.05, 32.19 103.87, 29.9 102.59 C27.61 101.3, 25.4 99.9, 23.32 98.4 C21.24 96.9, 19.25 95.28, 17.41 93.59 C15.56 91.9, 13.83 90.1, 12.25 88.24 C10.67 86.38, 9.22 84.43, 7.93 82.43 C6.64 80.42, 5.48 78.34, 4.5 76.23 C3.51 74.12, 2.68 71.94, 2.01 69.74 C1.35 67.55, 0.84 65.3, 0.5 63.06 C0.17 60.81, 0 58.54, 0 56.27 C0 54.01, 0.17 51.74, 0.5 49.49 C0.84 47.25, 1.35 45, 2.01 42.81 C2.68 40.61, 3.51 38.43, 4.5 36.32 C5.48 34.21, 6.64 32.12, 7.93 30.12 C9.22 28.12, 10.67 26.17, 12.25 24.31 C13.83 22.45, 15.56 20.65, 17.41 18.96 C19.25 17.27, 21.24 15.65, 23.32 14.15 C25.4 12.65, 27.61 11.25, 29.9 9.96 C32.19 8.68, 34.59 7.5, 37.05 6.45 C39.51 5.4, 42.07 4.46, 44.67 3.66 C47.27 2.86, 49.95 2.18, 52.65 1.64 C55.35 1.09, 58.12 0.68, 60.88 0.41 C63.64 0.14, 66.44 0, 69.22 0 C72 0, 74.8 0.14, 77.56 0.41 C80.32 0.68, 83.08 1.09, 85.78 1.64 C88.49 2.18, 91.16 2.86, 93.77 3.66 C96.37 4.46, 98.92 5.4, 101.39 6.45 C103.85 7.5, 106.25 8.68, 108.54 9.96 C110.83 11.25, 113.04 12.65, 115.12 14.15 C117.2 15.65, 119.19 17.27, 121.03 18.96 C122.88 20.65, 124.61 22.45, 126.19 24.31 C127.77 26.17, 129.22 28.12, 130.51 30.12 C131.8 32.12, 132.95 34.21, 133.94 36.32 C134.93 38.43, 135.76 40.61, 136.43 42.81 C137.09 45, 137.6 47.25, 137.93 49.49 C138.27 51.74, 138.44 54.01, 138.44 56.27" stroke="none" stroke-width="0" fill="#ffffff"></path><path d="M138.44 56.27 C138.44 58.54, 138.27 60.81, 137.93 63.06 C137.6 65.3, 137.09 67.55, 136.43 69.74 C135.76 71.94, 134.93 74.12, 133.94 76.23 C132.95 78.34, 131.8 80.42, 130.51 82.43 C129.22 84.43, 127.77 86.38, 126.19 88.24 C124.61 90.1, 122.88 91.9, 121.03 93.59 C119.19 95.28, 117.2 96.9, 115.12 98.4 C113.04 99.9, 110.83 101.3, 108.54 102.59 C106.25 103.87, 103.85 105.05, 101.39 106.1 C98.92 107.15, 96.37 108.09, 93.77 108.89 C91.16 109.69, 88.49 110.37, 85.78 110.91 C83.08 111.45, 80.32 111.87, 77.56 112.14 C74.8 112.41, 72 112.55, 69.22 112.55 C66.44 112.55, 63.64 112.41, 60.88 112.14 C58.12 111.87, 55.35 111.45, 52.65 110.91 C49.95 110.37, 47.27 109.69, 44.67 108.89 C42.07 108.09, 39.51 107.15, 37.05 106.1 C34.59 105.05, 32.19 103.87, 29.9 102.59 C27.61 101.3, 25.4 99.9, 23.32 98.4 C21.24 96.9, 19.25 95.28, 17.41 93.59 C15.56 91.9, 13.83 90.1, 12.25 88.24 C10.67 86.38, 9.22 84.43, 7.93 82.43 C6.64 80.42, 5.48 78.34, 4.5 76.23 C3.51 74.12, 2.68 71.94, 2.01 69.74 C1.35 67.55, 0.84 65.3, 0.5 63.06 C0.17 60.81, 0 58.54, 0 56.27 C0 54.01, 0.17 51.74, 0.5 49.49 C0.84 47.25, 1.35 45, 2.01 42.81 C2.68 40.61, 3.51 38.43, 4.5 36.32 C5.48 34.21, 6.64 32.12, 7.93 30.12 C9.22 28.12, 10.67 26.17, 12.25 24.31 C13.83 22.45, 15.56 20.65, 17.41 18.96 C19.25 17.27, 21.24 15.65, 23.32 14.15 C25.4 12.65, 27.61 11.25, 29.9 9.96 C32.19 8.68, 34.59 7.5, 37.05 6.45 C39.51 5.4, 42.07 4.46, 44.67 3.66 C47.27 2.86, 49.95 2.18, 52.65 1.64 C55.35 1.09, 58.12 0.68, 60.88 0.41 C63.64 0.14, 66.44 0, 69.22 0 C72 0, 74.8 0.14, 77.56 0.41 C80.32 0.68, 83.08 1.09, 85.78 1.64 C88.49 2.18, 91.16 2.86, 93.77 3.66 C96.37 4.46, 98.92 5.4, 101.39 6.45 C103.85 7.5, 106.25 8.68, 108.54 9.96 C110.83 11.25, 113.04 12.65, 115.12 14.15 C117.2 15.65, 119.19 17.27, 121.03 18.96 C122.88 20.65, 124.61 22.45, 126.19 24.31 C127.77 26.17, 129.22 28.12, 130.51 30.12 C131.8 32.12, 132.95 34.21, 133.94 36.32 C134.93 38.43, 135.76 40.61, 136.43 42.81 C137.09 45, 137.6 47.25, 137.93 49.49 C138.27 51.74, 138.44 54.01, 138.44 56.27" stroke="#000000" stroke-width="2" fill="none"></path></g><g stroke-linecap="round"><g transform="translate(55.34067894540249 31.4222640248812) rotate(294.1768782491122 1.2494176486031279 -5.548077417040986)"><path d="M0 0 C0.39 -0.85, 1.99 -3.26, 2.36 -5.11 C2.73 -6.96, 2.25 -10.1, 2.23 -11.1 M0 0 C0.39 -0.85, 1.99 -3.26, 2.36 -5.11 C2.73 -6.96, 2.25 -10.1, 2.23 -11.1" stroke="#000000" stroke-width="2" fill="none"></path></g></g><g stroke-linecap="round"><g transform="translate(62.989287744007015 21.088453715212722) rotate(294.1768782491122 -3.9224867034521935 3.5256607116443774)"><path d="M0 0 C-0.45 0.55, -1.39 2.13, -2.7 3.31 C-4 4.48, -6.99 6.43, -7.84 7.05 M0 0 C-0.45 0.55, -1.39 2.13, -2.7 3.31 C-4 4.48, -6.99 6.43, -7.84 7.05" stroke="#000000" stroke-width="2" fill="none"></path></g></g><g stroke-linecap="round" transform="translate(144.30687087199158 40.30809091165645) rotate(0 41.31828353340558 41.72536021846378)"><path d="M82.64 41.73 C82.64 43.7, 82.49 45.7, 82.22 47.66 C81.94 49.62, 81.52 51.58, 80.96 53.48 C80.41 55.38, 79.72 57.26, 78.9 59.06 C78.09 60.86, 77.14 62.62, 76.08 64.28 C75.02 65.95, 73.83 67.55, 72.54 69.05 C71.26 70.55, 69.86 71.96, 68.38 73.26 C66.89 74.56, 65.31 75.76, 63.66 76.83 C62.01 77.9, 60.27 78.86, 58.48 79.68 C56.7 80.5, 54.84 81.2, 52.96 81.76 C51.08 82.32, 49.14 82.74, 47.2 83.03 C45.26 83.31, 43.28 83.45, 41.32 83.45 C39.36 83.45, 37.38 83.31, 35.44 83.03 C33.5 82.74, 31.56 82.32, 29.68 81.76 C27.8 81.2, 25.94 80.5, 24.15 79.68 C22.37 78.86, 20.63 77.9, 18.98 76.83 C17.33 75.76, 15.74 74.56, 14.26 73.26 C12.78 71.96, 11.38 70.55, 10.09 69.05 C8.81 67.55, 7.62 65.95, 6.56 64.28 C5.5 62.62, 4.55 60.86, 3.73 59.06 C2.92 57.26, 2.23 55.38, 1.67 53.48 C1.12 51.58, 0.7 49.62, 0.42 47.66 C0.14 45.7, 0 43.7, 0 41.73 C0 39.75, 0.14 37.75, 0.42 35.79 C0.7 33.83, 1.12 31.87, 1.67 29.97 C2.23 28.07, 2.92 26.19, 3.73 24.39 C4.55 22.59, 5.5 20.83, 6.56 19.17 C7.62 17.5, 8.81 15.9, 10.09 14.4 C11.38 12.91, 12.78 11.49, 14.26 10.19 C15.74 8.9, 17.33 7.69, 18.98 6.62 C20.63 5.55, 22.37 4.59, 24.15 3.77 C25.94 2.95, 27.8 2.25, 29.68 1.69 C31.56 1.13, 33.5 0.71, 35.44 0.42 C37.38 0.14, 39.36 0, 41.32 0 C43.28 0, 45.26 0.14, 47.2 0.42 C49.14 0.71, 51.08 1.13, 52.96 1.69 C54.84 2.25, 56.7 2.95, 58.48 3.77 C60.27 4.59, 62.01 5.55, 63.66 6.62 C65.31 7.69, 66.89 8.9, 68.38 10.19 C69.86 11.49, 71.26 12.91, 72.54 14.4 C73.83 15.9, 75.02 17.5, 76.08 19.17 C77.14 20.83, 78.09 22.59, 78.9 24.39 C79.72 26.19, 80.41 28.07, 80.96 29.97 C81.52 31.87, 81.94 33.83, 82.22 35.79 C82.49 37.75, 82.57 40.74, 82.64 41.73 C82.71 42.72, 82.71 40.74, 82.64 41.73" stroke="none" stroke-width="0" fill="#ffffff"></path><path d="M82.64 41.73 C82.64 43.7, 82.49 45.7, 82.22 47.66 C81.94 49.62, 81.52 51.58, 80.96 53.48 C80.41 55.38, 79.72 57.26, 78.9 59.06 C78.09 60.86, 77.14 62.62, 76.08 64.28 C75.02 65.95, 73.83 67.55, 72.54 69.05 C71.26 70.55, 69.86 71.96, 68.38 73.26 C66.89 74.56, 65.31 75.76, 63.66 76.83 C62.01 77.9, 60.27 78.86, 58.48 79.68 C56.7 80.5, 54.84 81.2, 52.96 81.76 C51.08 82.32, 49.14 82.74, 47.2 83.03 C45.26 83.31, 43.28 83.45, 41.32 83.45 C39.36 83.45, 37.38 83.31, 35.44 83.03 C33.5 82.74, 31.56 82.32, 29.68 81.76 C27.8 81.2, 25.94 80.5, 24.15 79.68 C22.37 78.86, 20.63 77.9, 18.98 76.83 C17.33 75.76, 15.74 74.56, 14.26 73.26 C12.78 71.96, 11.38 70.55, 10.09 69.05 C8.81 67.55, 7.62 65.95, 6.56 64.28 C5.5 62.62, 4.55 60.86, 3.73 59.06 C2.92 57.26, 2.23 55.38, 1.67 53.48 C1.12 51.58, 0.7 49.62, 0.42 47.66 C0.14 45.7, 0 43.7, 0 41.73 C0 39.75, 0.14 37.75, 0.42 35.79 C0.7 33.83, 1.12 31.87, 1.67 29.97 C2.23 28.07, 2.92 26.19, 3.73 24.39 C4.55 22.59, 5.5 20.83, 6.56 19.17 C7.62 17.5, 8.81 15.9, 10.09 14.4 C11.38 12.91, 12.78 11.49, 14.26 10.19 C15.74 8.9, 17.33 7.69, 18.98 6.62 C20.63 5.55, 22.37 4.59, 24.15 3.77 C25.94 2.95, 27.8 2.25, 29.68 1.69 C31.56 1.13, 33.5 0.71, 35.44 0.42 C37.38 0.14, 39.36 0, 41.32 0 C43.28 0, 45.26 0.14, 47.2 0.42 C49.14 0.71, 51.08 1.13, 52.96 1.69 C54.84 2.25, 56.7 2.95, 58.48 3.77 C60.27 4.59, 62.01 5.55, 63.66 6.62 C65.31 7.69, 66.89 8.9, 68.38 10.19 C69.86 11.49, 71.26 12.91, 72.54 14.4 C73.83 15.9, 75.02 17.5, 76.08 19.17 C77.14 20.83, 78.09 22.59, 78.9 24.39 C79.72 26.19, 80.41 28.07, 80.96 29.97 C81.52 31.87, 81.94 33.83, 82.22 35.79 C82.49 37.75, 82.57 40.74, 82.64 41.73 C82.71 42.72, 82.71 40.74, 82.64 41.73" stroke="#000000" stroke-width="2" fill="none"></path></g><g stroke-linecap="round" transform="translate(19.334328559129403 40.627496602773476) rotate(0 41.31828353340558 41.72536021846378)"><path d="M82.64 41.73 C82.64 43.7, 82.49 45.7, 82.22 47.66 C81.94 49.62, 81.52 51.58, 80.96 53.48 C80.41 55.38, 79.72 57.26, 78.9 59.06 C78.09 60.86, 77.14 62.62, 76.08 64.28 C75.02 65.95, 73.83 67.55, 72.54 69.05 C71.26 70.55, 69.86 71.96, 68.38 73.26 C66.89 74.56, 65.31 75.76, 63.66 76.83 C62.01 77.9, 60.27 78.86, 58.48 79.68 C56.7 80.5, 54.84 81.2, 52.96 81.76 C51.08 82.32, 49.14 82.74, 47.2 83.03 C45.26 83.31, 43.28 83.45, 41.32 83.45 C39.36 83.45, 37.38 83.31, 35.44 83.03 C33.5 82.74, 31.56 82.32, 29.68 81.76 C27.8 81.2, 25.94 80.5, 24.15 79.68 C22.37 78.86, 20.63 77.9, 18.98 76.83 C17.33 75.76, 15.74 74.56, 14.26 73.26 C12.78 71.96, 11.38 70.55, 10.09 69.05 C8.81 67.55, 7.62 65.95, 6.56 64.28 C5.5 62.62, 4.55 60.86, 3.73 59.06 C2.92 57.26, 2.23 55.38, 1.67 53.48 C1.12 51.58, 0.7 49.62, 0.42 47.66 C0.14 45.7, 0 43.7, 0 41.73 C0 39.75, 0.14 37.75, 0.42 35.79 C0.7 33.83, 1.12 31.87, 1.67 29.97 C2.23 28.07, 2.92 26.19, 3.73 24.39 C4.55 22.59, 5.5 20.83, 6.56 19.17 C7.62 17.5, 8.81 15.9, 10.09 14.4 C11.38 12.91, 12.78 11.49, 14.26 10.19 C15.74 8.9, 17.33 7.69, 18.98 6.62 C20.63 5.55, 22.37 4.59, 24.15 3.77 C25.94 2.95, 27.8 2.25, 29.68 1.69 C31.56 1.13, 33.5 0.71, 35.44 0.42 C37.38 0.14, 39.36 0, 41.32 0 C43.28 0, 45.26 0.14, 47.2 0.42 C49.14 0.71, 51.08 1.13, 52.96 1.69 C54.84 2.25, 56.7 2.95, 58.48 3.77 C60.27 4.59, 62.01 5.55, 63.66 6.62 C65.31 7.69, 66.89 8.9, 68.38 10.19 C69.86 11.49, 71.26 12.91, 72.54 14.4 C73.83 15.9, 75.02 17.5, 76.08 19.17 C77.14 20.83, 78.09 22.59, 78.9 24.39 C79.72 26.19, 80.41 28.07, 80.96 29.97 C81.52 31.87, 81.94 33.83, 82.22 35.79 C82.49 37.75, 82.57 40.74, 82.64 41.73 C82.71 42.72, 82.71 40.74, 82.64 41.73" stroke="none" stroke-width="0" fill="#ffffff"></path><path d="M82.64 41.73 C82.64 43.7, 82.49 45.7, 82.22 47.66 C81.94 49.62, 81.52 51.58, 80.96 53.48 C80.41 55.38, 79.72 57.26, 78.9 59.06 C78.09 60.86, 77.14 62.62, 76.08 64.28 C75.02 65.95, 73.83 67.55, 72.54 69.05 C71.26 70.55, 69.86 71.96, 68.38 73.26 C66.89 74.56, 65.31 75.76, 63.66 76.83 C62.01 77.9, 60.27 78.86, 58.48 79.68 C56.7 80.5, 54.84 81.2, 52.96 81.76 C51.08 82.32, 49.14 82.74, 47.2 83.03 C45.26 83.31, 43.28 83.45, 41.32 83.45 C39.36 83.45, 37.38 83.31, 35.44 83.03 C33.5 82.74, 31.56 82.32, 29.68 81.76 C27.8 81.2, 25.94 80.5, 24.15 79.68 C22.37 78.86, 20.63 77.9, 18.98 76.83 C17.33 75.76, 15.74 74.56, 14.26 73.26 C12.78 71.96, 11.38 70.55, 10.09 69.05 C8.81 67.55, 7.62 65.95, 6.56 64.28 C5.5 62.62, 4.55 60.86, 3.73 59.06 C2.92 57.26, 2.23 55.38, 1.67 53.48 C1.12 51.58, 0.7 49.62, 0.42 47.66 C0.14 45.7, 0 43.7, 0 41.73 C0 39.75, 0.14 37.75, 0.42 35.79 C0.7 33.83, 1.12 31.87, 1.67 29.97 C2.23 28.07, 2.92 26.19, 3.73 24.39 C4.55 22.59, 5.5 20.83, 6.56 19.17 C7.62 17.5, 8.81 15.9, 10.09 14.4 C11.38 12.91, 12.78 11.49, 14.26 10.19 C15.74 8.9, 17.33 7.69, 18.98 6.62 C20.63 5.55, 22.37 4.59, 24.15 3.77 C25.94 2.95, 27.8 2.25, 29.68 1.69 C31.56 1.13, 33.5 0.71, 35.44 0.42 C37.38 0.14, 39.36 0, 41.32 0 C43.28 0, 45.26 0.14, 47.2 0.42 C49.14 0.71, 51.08 1.13, 52.96 1.69 C54.84 2.25, 56.7 2.95, 58.48 3.77 C60.27 4.59, 62.01 5.55, 63.66 6.62 C65.31 7.69, 66.89 8.9, 68.38 10.19 C69.86 11.49, 71.26 12.91, 72.54 14.4 C73.83 15.9, 75.02 17.5, 76.08 19.17 C77.14 20.83, 78.09 22.59, 78.9 24.39 C79.72 26.19, 80.41 28.07, 80.96 29.97 C81.52 31.87, 81.94 33.83, 82.22 35.79 C82.49 37.75, 82.57 40.74, 82.64 41.73 C82.71 42.72, 82.71 40.74, 82.64 41.73" stroke="#000000" stroke-width="2" fill="none"></path></g><g stroke-linecap="round"><g stroke-opacity="0.1" fill-opacity="0.1" transform="translate(203.672782220484 119.23109611914322) rotate(0 -29.230474935630866 -35.67644488236314)" fill-rule="evenodd"><path d="M0 0 L-7.66 0.91 L-15.35 0.05 L-25.25 -2.4 L-34.55 -6.97 L-45.91 -20.52 L-49 -27.23 L-49.64 -35.34 L-48.51 -44.07 L-45.98 -52.95 L-41.59 -61.28 L-34.28 -68.28 L-26.18 -73.7 L-12.99 -78.32 L-22.78 -77.48 L-35.89 -74.6 L-43.63 -69.1 L-53.2 -57.82 L-55.84 -52.62 L-59.35 -39 L-60.35 -24.61 L-57.7 -14.28 L-52.99 -7.06 L-44.53 0.13 L-31.91 5.4 L-24.46 6.76 L-16.29 6.65 L1.96 0.18" stroke="none" stroke-width="0" fill="#000000" fill-rule="evenodd"></path><path d="M0 0 C-1.28 0.15, -5.1 0.9, -7.66 0.91 C-10.22 0.91, -12.42 0.6, -15.35 0.05 C-18.29 -0.5, -22.05 -1.23, -25.25 -2.4 C-28.45 -3.57, -31.78 -4.89, -34.55 -6.97 C-37.31 -9.06, -39.43 -11.54, -41.84 -14.91 C-44.25 -18.29, -47.89 -22.37, -49 -27.23 C-50.12 -32.09, -49.74 -38.39, -48.51 -44.07 C-47.27 -49.74, -45.31 -56.34, -41.59 -61.28 C-37.87 -66.22, -30.95 -70.87, -26.18 -73.7 C-21.42 -76.54, -11.38 -78.17, -12.99 -78.32 C-14.61 -78.47, -29.83 -77.19, -35.89 -74.6 C-41.94 -72.01, -46 -66.46, -49.32 -62.79 C-52.65 -59.13, -54.16 -56.58, -55.84 -52.62 C-57.51 -48.65, -58.6 -43.67, -59.35 -39 C-60.1 -34.34, -60.63 -28.73, -60.35 -24.61 C-60.08 -20.49, -58.92 -17.21, -57.7 -14.28 C-56.47 -11.36, -55.19 -9.47, -52.99 -7.06 C-50.8 -4.66, -48.04 -1.94, -44.53 0.13 C-41.01 2.21, -36.62 4.31, -31.91 5.4 C-27.21 6.48, -21.94 7.52, -16.29 6.65 C-10.65 5.78, -1.08 1.26, 1.96 0.18 M0 0 C-1.28 0.15, -5.1 0.9, -7.66 0.91 C-10.22 0.91, -12.42 0.6, -15.35 0.05 C-18.29 -0.5, -22.05 -1.23, -25.25 -2.4 C-28.45 -3.57, -31.78 -4.89, -34.55 -6.97 C-37.31 -9.06, -39.43 -11.54, -41.84 -14.91 C-44.25 -18.29, -47.89 -22.37, -49 -27.23 C-50.12 -32.09, -49.74 -38.39, -48.51 -44.07 C-47.27 -49.74, -45.31 -56.34, -41.59 -61.28 C-37.87 -66.22, -30.95 -70.87, -26.18 -73.7 C-21.42 -76.54, -11.38 -78.17, -12.99 -78.32 C-14.61 -78.47, -29.83 -77.19, -35.89 -74.6 C-41.94 -72.01, -46 -66.46, -49.32 -62.79 C-52.65 -59.13, -54.16 -56.58, -55.84 -52.62 C-57.51 -48.65, -58.6 -43.67, -59.35 -39 C-60.1 -34.34, -60.63 -28.73, -60.35 -24.61 C-60.08 -20.49, -58.92 -17.21, -57.7 -14.28 C-56.47 -11.36, -55.19 -9.47, -52.99 -7.06 C-50.8 -4.66, -48.04 -1.94, -44.53 0.13 C-41.01 2.21, -36.62 4.31, -31.91 5.4 C-27.21 6.48, -21.94 7.52, -16.29 6.65 C-10.65 5.78, -1.08 1.26, 1.96 0.18" stroke="#000000" stroke-width="2" fill="none"></path></g></g><g stroke-linecap="round"><g stroke-opacity="0.1" fill-opacity="0.1" transform="translate(65.14080365270866 122.95627614796524) rotate(0 -20.723967026011337 -40.563064037026066)" fill-rule="evenodd"><path d="M0 0 L-17.4 -10.19 L-25 -17.57 L-30.78 -26.34 L-33.5 -36.92 L-33.68 -47.64 L-31.37 -56.8 L-26.77 -64.85 L-19.45 -71.85 L-11.36 -77.28 L1.83 -81.89 L-7.95 -81.06 L-21.06 -78.17 L-28.8 -72.67 L-38.44 -61.38 L-41.01 -56.19 L-43.45 -42.75 L-41.42 -27.29 L-38.82 -20.09 L-35.31 -13.85 L-31.21 -9.55 L-18.28 -2.35 L-10.48 0.4 L0 0" stroke="none" stroke-width="0" fill="#000000" fill-rule="evenodd"></path><path d="M0 0 C-2.9 -1.7, -12.27 -5.8, -17.4 -10.19 C-22.53 -14.58, -28.07 -20.1, -30.78 -26.34 C-33.5 -32.58, -34.35 -41.22, -33.68 -47.64 C-33.01 -54.06, -30.49 -59.91, -26.77 -64.85 C-23.05 -69.79, -16.12 -74.44, -11.36 -77.28 C-6.59 -80.12, 3.45 -81.74, 1.83 -81.89 C0.22 -82.04, -15.01 -80.76, -21.06 -78.17 C-27.12 -75.58, -31.17 -70.03, -34.5 -66.37 C-37.82 -62.7, -39.52 -60.12, -41.01 -56.19 C-42.5 -52.25, -43.38 -47.57, -43.45 -42.75 C-43.52 -37.94, -42.77 -32.1, -41.42 -27.29 C-40.06 -22.47, -37.89 -17.38, -35.31 -13.85 C-32.73 -10.32, -30.09 -8.49, -25.95 -6.12 C-21.81 -3.74, -14.8 -0.62, -10.48 0.4 C-6.15 1.42, -1.75 0.07, 0 0 M0 0 C-2.9 -1.7, -12.27 -5.8, -17.4 -10.19 C-22.53 -14.58, -28.07 -20.1, -30.78 -26.34 C-33.5 -32.58, -34.35 -41.22, -33.68 -47.64 C-33.01 -54.06, -30.49 -59.91, -26.77 -64.85 C-23.05 -69.79, -16.12 -74.44, -11.36 -77.28 C-6.59 -80.12, 3.45 -81.74, 1.83 -81.89 C0.22 -82.04, -15.01 -80.76, -21.06 -78.17 C-27.12 -75.58, -31.17 -70.03, -34.5 -66.37 C-37.82 -62.7, -39.52 -60.12, -41.01 -56.19 C-42.5 -52.25, -43.38 -47.57, -43.45 -42.75 C-43.52 -37.94, -42.77 -32.1, -41.42 -27.29 C-40.06 -22.47, -37.89 -17.38, -35.31 -13.85 C-32.73 -10.32, -30.09 -8.49, -25.95 -6.12 C-21.81 -3.74, -14.8 -0.62, -10.48 0.4 C-6.15 1.42, -1.75 0.07, 0 0" stroke="#000000" stroke-width="2" fill="none"></path></g></g><g stroke-linecap="round" transform="translate(19.653734250246657 40.30809091165645) rotate(0 41.31828353340558 41.72536021846378)"><path d="M82.64 41.73 C82.64 43.7, 82.49 45.7, 82.22 47.66 C81.94 49.62, 81.52 51.58, 80.96 53.48 C80.41 55.38, 79.72 57.26, 78.9 59.06 C78.09 60.86, 77.14 62.62, 76.08 64.28 C75.02 65.95, 73.83 67.55, 72.54 69.05 C71.26 70.55, 69.86 71.96, 68.38 73.26 C66.89 74.56, 65.31 75.76, 63.66 76.83 C62.01 77.9, 60.27 78.86, 58.48 79.68 C56.7 80.5, 54.84 81.2, 52.96 81.76 C51.08 82.32, 49.14 82.74, 47.2 83.03 C45.26 83.31, 43.28 83.45, 41.32 83.45 C39.36 83.45, 37.38 83.31, 35.44 83.03 C33.5 82.74, 31.56 82.32, 29.68 81.76 C27.8 81.2, 25.94 80.5, 24.15 79.68 C22.37 78.86, 20.63 77.9, 18.98 76.83 C17.33 75.76, 15.74 74.56, 14.26 73.26 C12.78 71.96, 11.38 70.55, 10.09 69.05 C8.81 67.55, 7.62 65.95, 6.56 64.28 C5.5 62.62, 4.55 60.86, 3.73 59.06 C2.92 57.26, 2.23 55.38, 1.67 53.48 C1.12 51.58, 0.7 49.62, 0.42 47.66 C0.14 45.7, 0 43.7, 0 41.73 C0 39.75, 0.14 37.75, 0.42 35.79 C0.7 33.83, 1.12 31.87, 1.67 29.97 C2.23 28.07, 2.92 26.19, 3.73 24.39 C4.55 22.59, 5.5 20.83, 6.56 19.17 C7.62 17.5, 8.81 15.9, 10.09 14.4 C11.38 12.91, 12.78 11.49, 14.26 10.19 C15.74 8.9, 17.33 7.69, 18.98 6.62 C20.63 5.55, 22.37 4.59, 24.15 3.77 C25.94 2.95, 27.8 2.25, 29.68 1.69 C31.56 1.13, 33.5 0.71, 35.44 0.42 C37.38 0.14, 39.36 0, 41.32 0 C43.28 0, 45.26 0.14, 47.2 0.42 C49.14 0.71, 51.08 1.13, 52.96 1.69 C54.84 2.25, 56.7 2.95, 58.48 3.77 C60.27 4.59, 62.01 5.55, 63.66 6.62 C65.31 7.69, 66.89 8.9, 68.38 10.19 C69.86 11.49, 71.26 12.91, 72.54 14.4 C73.83 15.9, 75.02 17.5, 76.08 19.17 C77.14 20.83, 78.09 22.59, 78.9 24.39 C79.72 26.19, 80.41 28.07, 80.96 29.97 C81.52 31.87, 81.94 33.83, 82.22 35.79 C82.49 37.75, 82.57 40.74, 82.64 41.73 C82.71 42.72, 82.71 40.74, 82.64 41.73" stroke="#000000" stroke-width="2" fill="none"></path></g><g stroke-linecap="round" transform="translate(144.80029482991267 39.78603611124538) rotate(0 41.31828353340558 41.72536021846378)"><path d="M82.64 41.73 C82.64 43.7, 82.49 45.7, 82.22 47.66 C81.94 49.62, 81.52 51.58, 80.96 53.48 C80.41 55.38, 79.72 57.26, 78.9 59.06 C78.09 60.86, 77.14 62.62, 76.08 64.28 C75.02 65.95, 73.83 67.55, 72.54 69.05 C71.26 70.55, 69.86 71.96, 68.38 73.26 C66.89 74.56, 65.31 75.76, 63.66 76.83 C62.01 77.9, 60.27 78.86, 58.48 79.68 C56.7 80.5, 54.84 81.2, 52.96 81.76 C51.08 82.32, 49.14 82.74, 47.2 83.03 C45.26 83.31, 43.28 83.45, 41.32 83.45 C39.36 83.45, 37.38 83.31, 35.44 83.03 C33.5 82.74, 31.56 82.32, 29.68 81.76 C27.8 81.2, 25.94 80.5, 24.15 79.68 C22.37 78.86, 20.63 77.9, 18.98 76.83 C17.33 75.76, 15.74 74.56, 14.26 73.26 C12.78 71.96, 11.38 70.55, 10.09 69.05 C8.81 67.55, 7.62 65.95, 6.56 64.28 C5.5 62.62, 4.55 60.86, 3.73 59.06 C2.92 57.26, 2.23 55.38, 1.67 53.48 C1.12 51.58, 0.7 49.62, 0.42 47.66 C0.14 45.7, 0 43.7, 0 41.73 C0 39.75, 0.14 37.75, 0.42 35.79 C0.7 33.83, 1.12 31.87, 1.67 29.97 C2.23 28.07, 2.92 26.19, 3.73 24.39 C4.55 22.59, 5.5 20.83, 6.56 19.17 C7.62 17.5, 8.81 15.9, 10.09 14.4 C11.38 12.91, 12.78 11.49, 14.26 10.19 C15.74 8.9, 17.33 7.69, 18.98 6.62 C20.63 5.55, 22.37 4.59, 24.15 3.77 C25.94 2.95, 27.8 2.25, 29.68 1.69 C31.56 1.13, 33.5 0.71, 35.44 0.42 C37.38 0.14, 39.36 0, 41.32 0 C43.28 0, 45.26 0.14, 47.2 0.42 C49.14 0.71, 51.08 1.13, 52.96 1.69 C54.84 2.25, 56.7 2.95, 58.48 3.77 C60.27 4.59, 62.01 5.55, 63.66 6.62 C65.31 7.69, 66.89 8.9, 68.38 10.19 C69.86 11.49, 71.26 12.91, 72.54 14.4 C73.83 15.9, 75.02 17.5, 76.08 19.17 C77.14 20.83, 78.09 22.59, 78.9 24.39 C79.72 26.19, 80.41 28.07, 80.96 29.97 C81.52 31.87, 81.94 33.83, 82.22 35.79 C82.49 37.75, 82.57 40.74, 82.64 41.73 C82.71 42.72, 82.71 40.74, 82.64 41.73" stroke="#000000" stroke-width="2" fill="none"></path></g><g stroke-linecap="round" transform="translate(39.852687970505485 61.081970004841764) rotate(0 8.345072043692767 7.937995358634566)"><path d="M16.69 7.94 C16.69 8.4, 16.65 8.86, 16.56 9.32 C16.48 9.77, 16.35 10.22, 16.19 10.65 C16.02 11.08, 15.81 11.51, 15.57 11.91 C15.33 12.3, 15.05 12.69, 14.74 13.04 C14.43 13.39, 14.08 13.72, 13.71 14.02 C13.34 14.31, 12.94 14.58, 12.52 14.81 C12.1 15.04, 11.65 15.24, 11.2 15.4 C10.75 15.55, 10.27 15.68, 9.79 15.76 C9.32 15.84, 8.83 15.88, 8.35 15.88 C7.86 15.88, 7.37 15.84, 6.9 15.76 C6.42 15.68, 5.94 15.55, 5.49 15.4 C5.04 15.24, 4.59 15.04, 4.17 14.81 C3.75 14.58, 3.35 14.31, 2.98 14.02 C2.61 13.72, 2.26 13.39, 1.95 13.04 C1.64 12.69, 1.36 12.3, 1.12 11.91 C0.88 11.51, 0.67 11.08, 0.5 10.65 C0.34 10.22, 0.21 9.77, 0.13 9.32 C0.04 8.86, 0 8.4, 0 7.94 C0 7.48, 0.04 7.01, 0.13 6.56 C0.21 6.11, 0.34 5.65, 0.5 5.22 C0.67 4.79, 0.88 4.37, 1.12 3.97 C1.36 3.57, 1.64 3.19, 1.95 2.84 C2.26 2.48, 2.61 2.15, 2.98 1.86 C3.35 1.56, 3.75 1.29, 4.17 1.06 C4.59 0.83, 5.04 0.64, 5.49 0.48 C5.94 0.32, 6.42 0.2, 6.9 0.12 C7.37 0.04, 7.86 0, 8.35 0 C8.83 0, 9.32 0.04, 9.79 0.12 C10.27 0.2, 10.75 0.32, 11.2 0.48 C11.65 0.64, 12.1 0.83, 12.52 1.06 C12.94 1.29, 13.34 1.56, 13.71 1.86 C14.08 2.15, 14.43 2.48, 14.74 2.84 C15.05 3.19, 15.33 3.57, 15.57 3.97 C15.81 4.37, 16.02 4.79, 16.19 5.22 C16.35 5.65, 16.48 6.11, 16.56 6.56 C16.65 7.01, 16.67 7.71, 16.69 7.94 C16.71 8.17, 16.71 7.71, 16.69 7.94" stroke="none" stroke-width="0" fill="#000000"></path><path d="M16.69 7.94 C16.69 8.4, 16.65 8.86, 16.56 9.32 C16.48 9.77, 16.35 10.22, 16.19 10.65 C16.02 11.08, 15.81 11.51, 15.57 11.91 C15.33 12.3, 15.05 12.69, 14.74 13.04 C14.43 13.39, 14.08 13.72, 13.71 14.02 C13.34 14.31, 12.94 14.58, 12.52 14.81 C12.1 15.04, 11.65 15.24, 11.2 15.4 C10.75 15.55, 10.27 15.68, 9.79 15.76 C9.32 15.84, 8.83 15.88, 8.35 15.88 C7.86 15.88, 7.37 15.84, 6.9 15.76 C6.42 15.68, 5.94 15.55, 5.49 15.4 C5.04 15.24, 4.59 15.04, 4.17 14.81 C3.75 14.58, 3.35 14.31, 2.98 14.02 C2.61 13.72, 2.26 13.39, 1.95 13.04 C1.64 12.69, 1.36 12.3, 1.12 11.91 C0.88 11.51, 0.67 11.08, 0.5 10.65 C0.34 10.22, 0.21 9.77, 0.13 9.32 C0.04 8.86, 0 8.4, 0 7.94 C0 7.48, 0.04 7.01, 0.13 6.56 C0.21 6.11, 0.34 5.65, 0.5 5.22 C0.67 4.79, 0.88 4.37, 1.12 3.97 C1.36 3.57, 1.64 3.19, 1.95 2.84 C2.26 2.48, 2.61 2.15, 2.98 1.86 C3.35 1.56, 3.75 1.29, 4.17 1.06 C4.59 0.83, 5.04 0.64, 5.49 0.48 C5.94 0.32, 6.42 0.2, 6.9 0.12 C7.37 0.04, 7.86 0, 8.35 0 C8.83 0, 9.32 0.04, 9.79 0.12 C10.27 0.2, 10.75 0.32, 11.2 0.48 C11.65 0.64, 12.1 0.83, 12.52 1.06 C12.94 1.29, 13.34 1.56, 13.71 1.86 C14.08 2.15, 14.43 2.48, 14.74 2.84 C15.05 3.19, 15.33 3.57, 15.57 3.97 C15.81 4.37, 16.02 4.79, 16.19 5.22 C16.35 5.65, 16.48 6.11, 16.56 6.56 C16.65 7.01, 16.67 7.71, 16.69 7.94 C16.71 8.17, 16.71 7.71, 16.69 7.94" stroke="#000000" stroke-width="2" fill="none"></path></g><g stroke-linecap="round" transform="translate(49.859549068573074 63.37579226709897) rotate(0 1.6283067402327447 2.0353834252908882)"><path d="M3.26 2.04 C3.26 2.15, 3.25 2.27, 3.23 2.39 C3.22 2.5, 3.19 2.62, 3.16 2.73 C3.13 2.84, 3.09 2.95, 3.04 3.05 C2.99 3.16, 2.94 3.25, 2.88 3.34 C2.82 3.43, 2.75 3.52, 2.67 3.59 C2.6 3.67, 2.52 3.74, 2.44 3.8 C2.36 3.86, 2.27 3.91, 2.19 3.95 C2.1 3.99, 2 4.02, 1.91 4.04 C1.82 4.06, 1.72 4.07, 1.63 4.07 C1.53 4.07, 1.44 4.06, 1.35 4.04 C1.25 4.02, 1.16 3.99, 1.07 3.95 C0.98 3.91, 0.9 3.86, 0.81 3.8 C0.73 3.74, 0.65 3.67, 0.58 3.59 C0.51 3.52, 0.44 3.43, 0.38 3.34 C0.32 3.25, 0.27 3.16, 0.22 3.05 C0.17 2.95, 0.13 2.84, 0.1 2.73 C0.07 2.62, 0.04 2.5, 0.02 2.39 C0.01 2.27, 0 2.15, 0 2.04 C0 1.92, 0.01 1.8, 0.02 1.68 C0.04 1.57, 0.07 1.45, 0.1 1.34 C0.13 1.23, 0.17 1.12, 0.22 1.02 C0.27 0.92, 0.32 0.82, 0.38 0.73 C0.44 0.64, 0.51 0.55, 0.58 0.48 C0.65 0.4, 0.73 0.33, 0.81 0.27 C0.9 0.21, 0.98 0.16, 1.07 0.12 C1.16 0.08, 1.25 0.05, 1.35 0.03 C1.44 0.01, 1.53 0, 1.63 0 C1.72 0, 1.82 0.01, 1.91 0.03 C2 0.05, 2.1 0.08, 2.19 0.12 C2.27 0.16, 2.36 0.21, 2.44 0.27 C2.52 0.33, 2.6 0.4, 2.67 0.48 C2.75 0.55, 2.82 0.64, 2.88 0.73 C2.94 0.82, 2.99 0.92, 3.04 1.02 C3.09 1.12, 3.13 1.23, 3.16 1.34 C3.19 1.45, 3.22 1.57, 3.23 1.68 C3.25 1.8, 3.25 1.98, 3.26 2.04 C3.26 2.09, 3.26 1.98, 3.26 2.04" stroke="none" stroke-width="0" fill="#ffffff"></path><path d="M3.26 2.04 C3.26 2.15, 3.25 2.27, 3.23 2.39 C3.22 2.5, 3.19 2.62, 3.16 2.73 C3.13 2.84, 3.09 2.95, 3.04 3.05 C2.99 3.16, 2.94 3.25, 2.88 3.34 C2.82 3.43, 2.75 3.52, 2.67 3.59 C2.6 3.67, 2.52 3.74, 2.44 3.8 C2.36 3.86, 2.27 3.91, 2.19 3.95 C2.1 3.99, 2 4.02, 1.91 4.04 C1.82 4.06, 1.72 4.07, 1.63 4.07 C1.53 4.07, 1.44 4.06, 1.35 4.04 C1.25 4.02, 1.16 3.99, 1.07 3.95 C0.98 3.91, 0.9 3.86, 0.81 3.8 C0.73 3.74, 0.65 3.67, 0.58 3.59 C0.51 3.52, 0.44 3.43, 0.38 3.34 C0.32 3.25, 0.27 3.16, 0.22 3.05 C0.17 2.95, 0.13 2.84, 0.1 2.73 C0.07 2.62, 0.04 2.5, 0.02 2.39 C0.01 2.27, 0 2.15, 0 2.04 C0 1.92, 0.01 1.8, 0.02 1.68 C0.04 1.57, 0.07 1.45, 0.1 1.34 C0.13 1.23, 0.17 1.12, 0.22 1.02 C0.27 0.92, 0.32 0.82, 0.38 0.73 C0.44 0.64, 0.51 0.55, 0.58 0.48 C0.65 0.4, 0.73 0.33, 0.81 0.27 C0.9 0.21, 0.98 0.16, 1.07 0.12 C1.16 0.08, 1.25 0.05, 1.35 0.03 C1.44 0.01, 1.53 0, 1.63 0 C1.72 0, 1.82 0.01, 1.91 0.03 C2 0.05, 2.1 0.08, 2.19 0.12 C2.27 0.16, 2.36 0.21, 2.44 0.27 C2.52 0.33, 2.6 0.4, 2.67 0.48 C2.75 0.55, 2.82 0.64, 2.88 0.73 C2.94 0.82, 2.99 0.92, 3.04 1.02 C3.09 1.12, 3.13 1.23, 3.16 1.34 C3.19 1.45, 3.22 1.57, 3.23 1.68 C3.25 1.8, 3.25 1.98, 3.26 2.04 C3.26 2.09, 3.26 1.98, 3.26 2.04" stroke="#ffffff" stroke-width="2" fill="none"></path></g><g stroke-linecap="round" transform="translate(190.03388418616237 88.6594989134752) rotate(0 8.345072043692767 7.937995358634566)"><path d="M16.69 7.94 C16.69 8.4, 16.65 8.86, 16.56 9.32 C16.48 9.77, 16.35 10.22, 16.19 10.65 C16.02 11.08, 15.81 11.51, 15.57 11.91 C15.33 12.3, 15.05 12.69, 14.74 13.04 C14.43 13.39, 14.08 13.72, 13.71 14.02 C13.34 14.31, 12.94 14.58, 12.52 14.81 C12.1 15.04, 11.65 15.24, 11.2 15.4 C10.75 15.55, 10.27 15.68, 9.79 15.76 C9.32 15.84, 8.83 15.88, 8.35 15.88 C7.86 15.88, 7.37 15.84, 6.9 15.76 C6.42 15.68, 5.94 15.55, 5.49 15.4 C5.04 15.24, 4.59 15.04, 4.17 14.81 C3.75 14.58, 3.35 14.31, 2.98 14.02 C2.61 13.72, 2.26 13.39, 1.95 13.04 C1.64 12.69, 1.36 12.3, 1.12 11.91 C0.88 11.51, 0.67 11.08, 0.5 10.65 C0.34 10.22, 0.21 9.77, 0.13 9.32 C0.04 8.86, 0 8.4, 0 7.94 C0 7.48, 0.04 7.01, 0.13 6.56 C0.21 6.11, 0.34 5.65, 0.5 5.22 C0.67 4.79, 0.88 4.37, 1.12 3.97 C1.36 3.57, 1.64 3.19, 1.95 2.84 C2.26 2.48, 2.61 2.15, 2.98 1.86 C3.35 1.56, 3.75 1.29, 4.17 1.06 C4.59 0.83, 5.04 0.64, 5.49 0.48 C5.94 0.32, 6.42 0.2, 6.9 0.12 C7.37 0.04, 7.86 0, 8.35 0 C8.83 0, 9.32 0.04, 9.79 0.12 C10.27 0.2, 10.75 0.32, 11.2 0.48 C11.65 0.64, 12.1 0.83, 12.52 1.06 C12.94 1.29, 13.34 1.56, 13.71 1.86 C14.08 2.15, 14.43 2.48, 14.74 2.84 C15.05 3.19, 15.33 3.57, 15.57 3.97 C15.81 4.37, 16.02 4.79, 16.19 5.22 C16.35 5.65, 16.48 6.11, 16.56 6.56 C16.65 7.01, 16.67 7.71, 16.69 7.94 C16.71 8.17, 16.71 7.71, 16.69 7.94" stroke="none" stroke-width="0" fill="#000000"></path><path d="M16.69 7.94 C16.69 8.4, 16.65 8.86, 16.56 9.32 C16.48 9.77, 16.35 10.22, 16.19 10.65 C16.02 11.08, 15.81 11.51, 15.57 11.91 C15.33 12.3, 15.05 12.69, 14.74 13.04 C14.43 13.39, 14.08 13.72, 13.71 14.02 C13.34 14.31, 12.94 14.58, 12.52 14.81 C12.1 15.04, 11.65 15.24, 11.2 15.4 C10.75 15.55, 10.27 15.68, 9.79 15.76 C9.32 15.84, 8.83 15.88, 8.35 15.88 C7.86 15.88, 7.37 15.84, 6.9 15.76 C6.42 15.68, 5.94 15.55, 5.49 15.4 C5.04 15.24, 4.59 15.04, 4.17 14.81 C3.75 14.58, 3.35 14.31, 2.98 14.02 C2.61 13.72, 2.26 13.39, 1.95 13.04 C1.64 12.69, 1.36 12.3, 1.12 11.91 C0.88 11.51, 0.67 11.08, 0.5 10.65 C0.34 10.22, 0.21 9.77, 0.13 9.32 C0.04 8.86, 0 8.4, 0 7.94 C0 7.48, 0.04 7.01, 0.13 6.56 C0.21 6.11, 0.34 5.65, 0.5 5.22 C0.67 4.79, 0.88 4.37, 1.12 3.97 C1.36 3.57, 1.64 3.19, 1.95 2.84 C2.26 2.48, 2.61 2.15, 2.98 1.86 C3.35 1.56, 3.75 1.29, 4.17 1.06 C4.59 0.83, 5.04 0.64, 5.49 0.48 C5.94 0.32, 6.42 0.2, 6.9 0.12 C7.37 0.04, 7.86 0, 8.35 0 C8.83 0, 9.32 0.04, 9.79 0.12 C10.27 0.2, 10.75 0.32, 11.2 0.48 C11.65 0.64, 12.1 0.83, 12.52 1.06 C12.94 1.29, 13.34 1.56, 13.71 1.86 C14.08 2.15, 14.43 2.48, 14.74 2.84 C15.05 3.19, 15.33 3.57, 15.57 3.97 C15.81 4.37, 16.02 4.79, 16.19 5.22 C16.35 5.65, 16.48 6.11, 16.56 6.56 C16.65 7.01, 16.67 7.71, 16.69 7.94 C16.71 8.17, 16.71 7.71, 16.69 7.94" stroke="#000000" stroke-width="2" fill="none"></path></g><g stroke-linecap="round" transform="translate(199.5841226498078 89.42410633422776) rotate(0 1.6283067402327447 2.0353834252909166)"><path d="M3.26 2.04 C3.26 2.15, 3.25 2.27, 3.23 2.39 C3.22 2.5, 3.19 2.62, 3.16 2.73 C3.13 2.84, 3.09 2.95, 3.04 3.05 C2.99 3.16, 2.94 3.25, 2.88 3.34 C2.82 3.43, 2.75 3.52, 2.67 3.59 C2.6 3.67, 2.52 3.74, 2.44 3.8 C2.36 3.86, 2.27 3.91, 2.19 3.95 C2.1 3.99, 2 4.02, 1.91 4.04 C1.82 4.06, 1.72 4.07, 1.63 4.07 C1.53 4.07, 1.44 4.06, 1.35 4.04 C1.25 4.02, 1.16 3.99, 1.07 3.95 C0.98 3.91, 0.9 3.86, 0.81 3.8 C0.73 3.74, 0.65 3.67, 0.58 3.59 C0.51 3.52, 0.44 3.43, 0.38 3.34 C0.32 3.25, 0.27 3.16, 0.22 3.05 C0.17 2.95, 0.13 2.84, 0.1 2.73 C0.07 2.62, 0.04 2.5, 0.02 2.39 C0.01 2.27, 0 2.15, 0 2.04 C0 1.92, 0.01 1.8, 0.02 1.68 C0.04 1.57, 0.07 1.45, 0.1 1.34 C0.13 1.23, 0.17 1.12, 0.22 1.02 C0.27 0.92, 0.32 0.82, 0.38 0.73 C0.44 0.64, 0.51 0.55, 0.58 0.48 C0.65 0.4, 0.73 0.33, 0.81 0.27 C0.9 0.21, 0.98 0.16, 1.07 0.12 C1.16 0.08, 1.25 0.05, 1.35 0.03 C1.44 0.01, 1.53 0, 1.63 0 C1.72 0, 1.82 0.01, 1.91 0.03 C2 0.05, 2.1 0.08, 2.19 0.12 C2.27 0.16, 2.36 0.21, 2.44 0.27 C2.52 0.33, 2.6 0.4, 2.67 0.48 C2.75 0.55, 2.82 0.64, 2.88 0.73 C2.94 0.82, 2.99 0.92, 3.04 1.02 C3.09 1.12, 3.13 1.23, 3.16 1.34 C3.19 1.45, 3.22 1.57, 3.23 1.68 C3.25 1.8, 3.25 1.98, 3.26 2.04 C3.26 2.09, 3.26 1.98, 3.26 2.04" stroke="none" stroke-width="0" fill="#ffffff"></path><path d="M3.26 2.04 C3.26 2.15, 3.25 2.27, 3.23 2.39 C3.22 2.5, 3.19 2.62, 3.16 2.73 C3.13 2.84, 3.09 2.95, 3.04 3.05 C2.99 3.16, 2.94 3.25, 2.88 3.34 C2.82 3.43, 2.75 3.52, 2.67 3.59 C2.6 3.67, 2.52 3.74, 2.44 3.8 C2.36 3.86, 2.27 3.91, 2.19 3.95 C2.1 3.99, 2 4.02, 1.91 4.04 C1.82 4.06, 1.72 4.07, 1.63 4.07 C1.53 4.07, 1.44 4.06, 1.35 4.04 C1.25 4.02, 1.16 3.99, 1.07 3.95 C0.98 3.91, 0.9 3.86, 0.81 3.8 C0.73 3.74, 0.65 3.67, 0.58 3.59 C0.51 3.52, 0.44 3.43, 0.38 3.34 C0.32 3.25, 0.27 3.16, 0.22 3.05 C0.17 2.95, 0.13 2.84, 0.1 2.73 C0.07 2.62, 0.04 2.5, 0.02 2.39 C0.01 2.27, 0 2.15, 0 2.04 C0 1.92, 0.01 1.8, 0.02 1.68 C0.04 1.57, 0.07 1.45, 0.1 1.34 C0.13 1.23, 0.17 1.12, 0.22 1.02 C0.27 0.92, 0.32 0.82, 0.38 0.73 C0.44 0.64, 0.51 0.55, 0.58 0.48 C0.65 0.4, 0.73 0.33, 0.81 0.27 C0.9 0.21, 0.98 0.16, 1.07 0.12 C1.16 0.08, 1.25 0.05, 1.35 0.03 C1.44 0.01, 1.53 0, 1.63 0 C1.72 0, 1.82 0.01, 1.91 0.03 C2 0.05, 2.1 0.08, 2.19 0.12 C2.27 0.16, 2.36 0.21, 2.44 0.27 C2.52 0.33, 2.6 0.4, 2.67 0.48 C2.75 0.55, 2.82 0.64, 2.88 0.73 C2.94 0.82, 2.99 0.92, 3.04 1.02 C3.09 1.12, 3.13 1.23, 3.16 1.34 C3.19 1.45, 3.22 1.57, 3.23 1.68 C3.25 1.8, 3.25 1.98, 3.26 2.04 C3.26 2.09, 3.26 1.98, 3.26 2.04" stroke="#ffffff" stroke-width="2" fill="none"></path></g><g stroke-linecap="round"><g transform="translate(109.40294660480913 120.8350168161777) rotate(0 16.18474035154577 -4.309927414876029)" fill-rule="evenodd"><path d="M0 0 L0.57 -5.25 L2.71 -8.56 L5.95 -11.4 L15.36 -12.94 L23.27 -12.08 L27.19 -10.08 L30.37 -7.42 L32.39 -1.24 L31.81 1.65 L29.35 3.59 L16.28 2.14 L7.37 4.34 L2.09 3.11 L0.09 0.39" stroke="none" stroke-width="0" fill="#ccbdac" fill-rule="evenodd"></path><path d="M0 0 C0.1 -0.87, -0.42 -3.35, 0.57 -5.25 C1.56 -7.15, 3.48 -10.12, 5.95 -11.4 C8.41 -12.69, 12.48 -12.83, 15.36 -12.94 C18.25 -13.05, 20.77 -13, 23.27 -12.08 C25.77 -11.16, 28.85 -9.23, 30.37 -7.42 C31.89 -5.61, 32.57 -3.07, 32.39 -1.24 C32.22 0.6, 32.03 3.02, 29.35 3.59 C26.66 4.15, 19.95 2.02, 16.28 2.14 C12.62 2.27, 9.73 4.18, 7.37 4.34 C5 4.5, 3.3 3.76, 2.09 3.11 C0.88 2.45, 0.42 0.84, 0.09 0.39 M0 0 C0.1 -0.87, -0.42 -3.35, 0.57 -5.25 C1.56 -7.15, 3.48 -10.12, 5.95 -11.4 C8.41 -12.69, 12.48 -12.83, 15.36 -12.94 C18.25 -13.05, 20.77 -13, 23.27 -12.08 C25.77 -11.16, 28.85 -9.23, 30.37 -7.42 C31.89 -5.61, 32.57 -3.07, 32.39 -1.24 C32.22 0.6, 32.03 3.02, 29.35 3.59 C26.66 4.15, 19.95 2.02, 16.28 2.14 C12.62 2.27, 9.73 4.18, 7.37 4.34 C5 4.5, 3.3 3.76, 2.09 3.11 C0.88 2.45, 0.42 0.84, 0.09 0.39" stroke="#000000" stroke-width="2" fill="none"></path></g></g><g stroke-linecap="round"><g transform="translate(122.41256625132019 123.59264763342128) rotate(0 -4.014166460841182 -6.3595299438810855)" fill-rule="evenodd"><path d="M0 0 L-6.85 -1.98 L-7.78 -5.66 L-4.24 -8.28 L3.93 -9.34 L2.2 -11.82 L-1.22 -14.06 L-6.67 -13.21 L-11.42 -8.2 L-12 -5.14 L-11.51 -1.61 L-9.59 0.63 L-7.24 1.56 L0 0" stroke="none" stroke-width="0" fill="#958b7f" fill-rule="evenodd"></path><path d="M0 0 C-0.22 -0.04, -0.19 0.07, -1.33 -0.26 C-2.47 -0.59, -5.78 -1.08, -6.85 -1.98 C-7.93 -2.88, -8.21 -4.61, -7.78 -5.66 C-7.34 -6.71, -6.19 -7.67, -4.24 -8.28 C-2.29 -8.9, 3.42 -8.38, 3.93 -9.34 C4.43 -10.3, 0.55 -13.42, -1.22 -14.06 C-2.99 -14.71, -5.23 -13.8, -6.67 -13.21 C-8.11 -12.62, -9.07 -11.36, -9.87 -10.52 C-10.66 -9.68, -11.06 -9.1, -11.42 -8.2 C-11.77 -7.3, -11.98 -6.23, -12 -5.14 C-12.01 -4.04, -11.91 -2.57, -11.51 -1.61 C-11.11 -0.65, -10.3 0.1, -9.59 0.63 C-8.87 1.16, -8.34 1.53, -7.24 1.56 C-6.14 1.59, -4.17 1.06, -2.97 0.8 C-1.76 0.54, -0.49 0.13, 0 0 M0 0 C-0.22 -0.04, -0.19 0.07, -1.33 -0.26 C-2.47 -0.59, -5.78 -1.08, -6.85 -1.98 C-7.93 -2.88, -8.21 -4.61, -7.78 -5.66 C-7.34 -6.71, -6.19 -7.67, -4.24 -8.28 C-2.29 -8.9, 3.42 -8.38, 3.93 -9.34 C4.43 -10.3, 0.55 -13.42, -1.22 -14.06 C-2.99 -14.71, -5.23 -13.8, -6.67 -13.21 C-8.11 -12.62, -9.07 -11.36, -9.87 -10.52 C-10.66 -9.68, -11.06 -9.1, -11.42 -8.2 C-11.77 -7.3, -11.98 -6.23, -12 -5.14 C-12.01 -4.04, -11.91 -2.57, -11.51 -1.61 C-11.11 -0.65, -10.3 0.1, -9.59 0.63 C-8.87 1.16, -8.34 1.53, -7.24 1.56 C-6.14 1.59, -4.17 1.06, -2.97 0.8 C-1.76 0.54, -0.49 0.13, 0 0" stroke="#958b7f" stroke-width="2" fill="none"></path></g></g><g stroke-linecap="round"><g transform="translate(109.25710371090054 120.83038291344826) rotate(0 16.27567226572245 -4.352812317730439)"><path d="M0 0 C0.12 -0.88, -0.31 -3.38, 0.7 -5.29 C1.71 -7.2, 3.61 -10.17, 6.08 -11.45 C8.54 -12.73, 12.61 -12.87, 15.49 -12.98 C18.38 -13.09, 20.9 -13.04, 23.4 -12.12 C25.9 -11.2, 28.98 -9.27, 30.5 -7.46 C32.02 -5.66, 32.7 -3.12, 32.53 -1.28 C32.35 0.55, 32.16 2.98, 29.48 3.54 C26.79 4.11, 20.08 1.97, 16.42 2.1 C12.75 2.22, 9.86 4.13, 7.5 4.3 C5.13 4.46, 3.47 3.78, 2.22 3.06 C0.97 2.35, 0.37 0.51, 0 0 M0 0 C0.12 -0.88, -0.31 -3.38, 0.7 -5.29 C1.71 -7.2, 3.61 -10.17, 6.08 -11.45 C8.54 -12.73, 12.61 -12.87, 15.49 -12.98 C18.38 -13.09, 20.9 -13.04, 23.4 -12.12 C25.9 -11.2, 28.98 -9.27, 30.5 -7.46 C32.02 -5.66, 32.7 -3.12, 32.53 -1.28 C32.35 0.55, 32.16 2.98, 29.48 3.54 C26.79 4.11, 20.08 1.97, 16.42 2.1 C12.75 2.22, 9.86 4.13, 7.5 4.3 C5.13 4.46, 3.47 3.78, 2.22 3.06 C0.97 2.35, 0.37 0.51, 0 0" stroke="#000000" stroke-width="2" fill="none"></path></g></g><g stroke-linecap="round"><g transform="translate(114.21222002455306 106.30453051720326) rotate(0 11.191444098800957 0.8565355194577648)" fill-rule="evenodd"><path d="M0 0 L0.26 -3.18 L4.13 -5.65 L11.01 -6.57 L19.79 -5.05 L21.97 -3.29 L22.49 -0.16 L21.23 3.25 L17.17 6.33 L12.25 8.26 L8.11 7.43 L4.65 5.57 L1.21 2.41 L0 0" stroke="none" stroke-width="0" fill="#595755" fill-rule="evenodd"></path><path d="M0 0 C0.04 -0.53, -0.43 -2.23, 0.26 -3.18 C0.95 -4.12, 2.34 -5.09, 4.13 -5.65 C5.92 -6.22, 8.9 -6.5, 11.01 -6.57 C13.12 -6.63, 14.96 -6.6, 16.78 -6.05 C18.61 -5.51, 21.23 -4.84, 21.97 -3.29 C22.72 -1.74, 22.85 1.33, 21.23 3.25 C19.61 5.18, 15.02 7.87, 12.25 8.26 C9.49 8.64, 6.49 6.55, 4.65 5.57 C2.81 4.6, 1.99 3.34, 1.21 2.41 C0.44 1.48, 0.2 0.4, 0 0 M0 0 C0.04 -0.53, -0.43 -2.23, 0.26 -3.18 C0.95 -4.12, 2.34 -5.09, 4.13 -5.65 C5.92 -6.22, 8.9 -6.5, 11.01 -6.57 C13.12 -6.63, 14.96 -6.6, 16.78 -6.05 C18.61 -5.51, 21.23 -4.84, 21.97 -3.29 C22.72 -1.74, 22.85 1.33, 21.23 3.25 C19.61 5.18, 15.02 7.87, 12.25 8.26 C9.49 8.64, 6.49 6.55, 4.65 5.57 C2.81 4.6, 1.99 3.34, 1.21 2.41 C0.44 1.48, 0.2 0.4, 0 0" stroke="#000000" stroke-width="2" fill="none"></path></g></g><g stroke-linecap="round"><g transform="translate(128.22776884392488 113.72376319314583) rotate(0 -6.897554631608045 -6.562615632982812)" fill-rule="evenodd"><path d="M0 0 L-6.8 -2.95 L-9.36 -5.98 L-9.26 -9.25 L-6.46 -11.94 L-2.98 -13.8 L-11.62 -12.01 L-13.17 -9.69 L-13.75 -6.63 L-12.16 -4.27 L-8.3 -1.21 L-2.57 0.72" stroke="none" stroke-width="0" fill="#454342" fill-rule="evenodd"></path><path d="M0 0 C-0.53 -0.15, -2.04 -0.43, -3.17 -0.92 C-4.3 -1.41, -5.77 -2.11, -6.8 -2.95 C-7.83 -3.79, -8.95 -4.93, -9.36 -5.98 C-9.77 -7.03, -9.75 -8.26, -9.26 -9.25 C-8.78 -10.24, -7.51 -11.18, -6.46 -11.94 C-5.42 -12.7, -2.7 -13.59, -2.98 -13.8 C-3.26 -14.01, -6.69 -13.49, -8.14 -13.19 C-9.58 -12.89, -10.78 -12.59, -11.62 -12.01 C-12.46 -11.43, -12.82 -10.59, -13.17 -9.69 C-13.53 -8.79, -13.92 -7.53, -13.75 -6.63 C-13.59 -5.72, -12.75 -4.93, -12.16 -4.27 C-11.58 -3.6, -10.89 -3.16, -10.24 -2.65 C-9.6 -2.14, -9.08 -1.67, -8.3 -1.21 C-7.51 -0.75, -6.5 -0.2, -5.54 0.13 C-4.59 0.45, -3.07 0.63, -2.57 0.72 M0 0 C-0.53 -0.15, -2.04 -0.43, -3.17 -0.92 C-4.3 -1.41, -5.77 -2.11, -6.8 -2.95 C-7.83 -3.79, -8.95 -4.93, -9.36 -5.98 C-9.77 -7.03, -9.75 -8.26, -9.26 -9.25 C-8.78 -10.24, -7.51 -11.18, -6.46 -11.94 C-5.42 -12.7, -2.7 -13.59, -2.98 -13.8 C-3.26 -14.01, -6.69 -13.49, -8.14 -13.19 C-9.58 -12.89, -10.78 -12.59, -11.62 -12.01 C-12.46 -11.43, -12.82 -10.59, -13.17 -9.69 C-13.53 -8.79, -13.92 -7.53, -13.75 -6.63 C-13.59 -5.72, -12.75 -4.93, -12.16 -4.27 C-11.58 -3.6, -10.89 -3.16, -10.24 -2.65 C-9.6 -2.14, -9.08 -1.67, -8.3 -1.21 C-7.51 -0.75, -6.5 -0.2, -5.54 0.13 C-4.59 0.45, -3.07 0.63, -2.57 0.72" stroke="#454342" stroke-width="2" fill="none"></path></g></g><g stroke-linecap="round"><g transform="translate(114.1788951870194 106.28318483059081) rotate(0 11.191444098800957 0.8565355194577648)"><path d="M0 0 C0.04 -0.53, -0.43 -2.23, 0.26 -3.18 C0.95 -4.12, 2.34 -5.09, 4.13 -5.65 C5.92 -6.22, 8.9 -6.5, 11.01 -6.57 C13.12 -6.63, 14.96 -6.6, 16.78 -6.05 C18.61 -5.51, 21.23 -4.84, 21.97 -3.29 C22.72 -1.74, 22.85 1.33, 21.23 3.25 C19.61 5.18, 15.02 7.87, 12.25 8.26 C9.49 8.64, 6.49 6.55, 4.65 5.57 C2.81 4.6, 1.99 3.34, 1.21 2.41 C0.44 1.48, 0.2 0.4, 0 0 M0 0 C0.04 -0.53, -0.43 -2.23, 0.26 -3.18 C0.95 -4.12, 2.34 -5.09, 4.13 -5.65 C5.92 -6.22, 8.9 -6.5, 11.01 -6.57 C13.12 -6.63, 14.96 -6.6, 16.78 -6.05 C18.61 -5.51, 21.23 -4.84, 21.97 -3.29 C22.72 -1.74, 22.85 1.33, 21.23 3.25 C19.61 5.18, 15.02 7.87, 12.25 8.26 C9.49 8.64, 6.49 6.55, 4.65 5.57 C2.81 4.6, 1.99 3.34, 1.21 2.41 C0.44 1.48, 0.2 0.4, 0 0" stroke="#000000" stroke-width="2" fill="none"></path></g></g><g stroke-linecap="round"><g transform="translate(131.50747929179397 102.81282949903436) rotate(0 1.1425194825496874 1.9568828727380492)" fill-rule="evenodd"><path d="" stroke="none" stroke-width="0" fill="#454342" fill-rule="evenodd"></path><path d="M0 0 C0.33 0.27, 1.58 0.98, 1.96 1.63 C2.34 2.29, 2.23 3.53, 2.29 3.91 M0 0 C0.33 0.27, 1.58 0.98, 1.96 1.63 C2.34 2.29, 2.23 3.53, 2.29 3.91" stroke="#000000" stroke-width="2" fill="none"></path></g></g><g stroke-linecap="round"><g transform="translate(119.49567821623168 124.68706499571852) rotate(0 0.06842261609756406 3.0105951082920512)"><path d="M0 0 C0.02 1, 0.11 5.02, 0.14 6.02 M0 0 C0.02 1, 0.11 5.02, 0.14 6.02" stroke="#000000" stroke-width="2" fill="none"></path></g></g><g stroke-linecap="round"><g transform="translate(119.421283324059 129.86329471483066) rotate(0 7.466172675534324 -1.0474309610377759)" fill-rule="evenodd"><path d="M0 0 L1.17 3.72 L5 4.81 L10.2 4.95 L13.76 3.72 L15.04 -0.45 L15.2 -5.37 L6.64 -7.09 L2.98 -6.43 L-0.06 -5.04 L0 0" stroke="none" stroke-width="0" fill="#ffffff" fill-rule="evenodd"></path><path d="M0 0 C0.19 0.62, 0.34 2.92, 1.17 3.72 C2 4.52, 3.5 4.61, 5 4.81 C6.51 5.02, 8.74 5.13, 10.2 4.95 C11.66 4.77, 12.95 4.62, 13.76 3.72 C14.57 2.82, 14.8 1.07, 15.04 -0.45 C15.28 -1.96, 15.78 -4.38, 15.2 -5.37 C14.62 -6.35, 12.98 -6.08, 11.55 -6.37 C10.12 -6.65, 8.58 -7.31, 6.64 -7.09 C4.71 -6.87, 1.04 -6.22, -0.06 -5.04 C-1.17 -3.86, -0.01 -0.84, 0 0 M0 0 C0.19 0.62, 0.34 2.92, 1.17 3.72 C2 4.52, 3.5 4.61, 5 4.81 C6.51 5.02, 8.74 5.13, 10.2 4.95 C11.66 4.77, 12.95 4.62, 13.76 3.72 C14.57 2.82, 14.8 1.07, 15.04 -0.45 C15.28 -1.96, 15.78 -4.38, 15.2 -5.37 C14.62 -6.35, 12.98 -6.08, 11.55 -6.37 C10.12 -6.65, 8.58 -7.31, 6.64 -7.09 C4.71 -6.87, 1.04 -6.22, -0.06 -5.04 C-1.17 -3.86, -0.01 -0.84, 0 0" stroke="#000000" stroke-width="2" fill="none"></path></g></g><g stroke-linecap="round"><g transform="translate(126.74847552257188 123.8659936025482) rotate(0 0.16463399496660713 5.131696207315969)"><path d="M0 0 C0.05 0.76, 0.27 2.85, 0.32 4.56 C0.36 6.27, 0.28 9.31, 0.27 10.26 M0 0 C0.05 0.76, 0.27 2.85, 0.32 4.56 C0.36 6.27, 0.28 9.31, 0.27 10.26" stroke="#000000" stroke-width="2" fill="none"></path></g></g><g stroke-linecap="round"><g transform="translate(188.10605543861493 302.05565186146066) rotate(0 7.275971888160768 -1.2293400543441635)" fill-rule="evenodd"><path d="M0 0 L2.84 3.75 L9.53 8.47 L13.21 7.85 L16.14 5.9 L17.38 3.38 L16.87 0.03 L13.57 -4.81 L9.53 -9.14 L6.78 -10.73 L4.4 -10.98 L-0.01 -9.51 L-2.9 -5.71 L0 0" stroke="none" stroke-width="0" fill="#ffffff" fill-rule="evenodd"></path><path d="M0 0 C0.47 0.62, 1.25 2.34, 2.84 3.75 C4.43 5.16, 7.32 8.11, 9.53 8.47 C11.75 8.83, 14.92 7.31, 16.14 5.9 C17.36 4.5, 17.97 2.54, 16.87 0.03 C15.77 -2.48, 11.61 -7.31, 9.53 -9.14 C7.45 -10.98, 5.99 -10.92, 4.4 -10.98 C2.81 -11.04, 1.21 -10.39, -0.01 -9.51 C-1.22 -8.63, -2.9 -7.3, -2.9 -5.71 C-2.9 -4.12, -0.48 -0.95, 0 0 M0 0 C0.47 0.62, 1.25 2.34, 2.84 3.75 C4.43 5.16, 7.32 8.11, 9.53 8.47 C11.75 8.83, 14.92 7.31, 16.14 5.9 C17.36 4.5, 17.97 2.54, 16.87 0.03 C15.77 -2.48, 11.61 -7.31, 9.53 -9.14 C7.45 -10.98, 5.99 -10.92, 4.4 -10.98 C2.81 -11.04, 1.21 -10.39, -0.01 -9.51 C-1.22 -8.63, -2.9 -7.3, -2.9 -5.71 C-2.9 -4.12, -0.48 -0.95, 0 0" stroke="#000000" stroke-width="2" fill="none"></path></g></g><g stroke-linecap="round"><g transform="translate(33.85967668407113 303.227889106411) rotate(93.19672556143351 7.231746396297581 -1.7153694815714289)" fill-rule="evenodd"><path d="M0 0 L6.61 6.95 L9.53 8.47 L12.66 7.69 L15.21 5.64 L16.45 2.87 L16.15 -0.61 L13.22 -5.1 L9.53 -9.14 L4.5 -11.92 L-0.01 -9.51 L-2.11 -5.03 L0 0" stroke="none" stroke-width="0" fill="#ffffff" fill-rule="evenodd"></path><path d="M0 0 C0.65 0.75, 2.33 3.09, 3.91 4.5 C5.5 5.91, 7.65 8.28, 9.53 8.47 C11.42 8.66, 14.11 7.15, 15.21 5.64 C16.31 4.13, 17.1 1.85, 16.15 -0.61 C15.21 -3.08, 11.48 -7.26, 9.53 -9.14 C7.59 -11.03, 6.09 -11.85, 4.5 -11.92 C2.91 -11.98, 1.09 -10.66, -0.01 -9.51 C-1.11 -8.36, -2.11 -6.62, -2.11 -5.03 C-2.11 -3.45, -0.35 -0.84, 0 0 M0 0 C0.65 0.75, 2.33 3.09, 3.91 4.5 C5.5 5.91, 7.65 8.28, 9.53 8.47 C11.42 8.66, 14.11 7.15, 15.21 5.64 C16.31 4.13, 17.1 1.85, 16.15 -0.61 C15.21 -3.08, 11.48 -7.26, 9.53 -9.14 C7.59 -11.03, 6.09 -11.85, 4.5 -11.92 C2.91 -11.98, 1.09 -10.66, -0.01 -9.51 C-1.11 -8.36, -2.11 -6.62, -2.11 -5.03 C-2.11 -3.45, -0.35 -0.84, 0 0" stroke="#000000" stroke-width="2" fill="none"></path></g></g><g stroke-linecap="round"><g transform="translate(14.776245261169493 134.28267215573226) rotate(162.15297256280022 5.886916781514685 -0.2954145943854485)" fill-rule="evenodd"><path d="M0 0 L6.39 8.14 L9.31 10.32 L12.6 9.3 L14.79 6.82 L13.78 3.85 L7.55 -5.76 L3.02 -10.81 L0.64 -10.49 L-1.38 -9.22 L-3.01 -6.65 L-2.4 -3.99 L0 0" stroke="none" stroke-width="0" fill="#ffffff" fill-rule="evenodd"></path><path d="M0 0 C0.62 0.82, 2.14 3.18, 3.7 4.9 C5.25 6.62, 7.46 10, 9.31 10.32 C11.16 10.64, 14.42 8.45, 14.79 6.82 C15.17 5.18, 12.78 2.63, 11.57 0.53 C10.36 -1.56, 8.97 -3.87, 7.55 -5.76 C6.12 -7.65, 4.51 -10.23, 3.02 -10.81 C1.54 -11.39, -0.38 -9.91, -1.38 -9.22 C-2.39 -8.53, -2.84 -7.52, -3.01 -6.65 C-3.18 -5.78, -2.9 -5.09, -2.4 -3.99 C-1.89 -2.88, -0.4 -0.66, 0 0 M0 0 C0.62 0.82, 2.14 3.18, 3.7 4.9 C5.25 6.62, 7.46 10, 9.31 10.32 C11.16 10.64, 14.42 8.45, 14.79 6.82 C15.17 5.18, 12.78 2.63, 11.57 0.53 C10.36 -1.56, 8.97 -3.87, 7.55 -5.76 C6.12 -7.65, 4.51 -10.23, 3.02 -10.81 C1.54 -11.39, -0.38 -9.91, -1.38 -9.22 C-2.39 -8.53, -2.84 -7.52, -3.01 -6.65 C-3.18 -5.78, -2.9 -5.09, -2.4 -3.99 C-1.89 -2.88, -0.4 -0.66, 0 0" stroke="#000000" stroke-width="2" fill="none"></path></g></g><g stroke-linecap="round"><g transform="translate(215.80478922923908 131.53494830229704) rotate(269.81483594194157 5.886916781514628 -0.2954145943854485)" fill-rule="evenodd"><path d="M0 0 L6.39 8.14 L9.31 10.32 L12.6 9.3 L14.79 6.82 L13.78 3.85 L7.55 -5.76 L3.02 -10.81 L0.64 -10.49 L-1.38 -9.22 L-3.01 -6.65 L-2.4 -3.99 L0 0" stroke="none" stroke-width="0" fill="#ffffff" fill-rule="evenodd"></path><path d="M0 0 C0.62 0.82, 2.14 3.18, 3.7 4.9 C5.25 6.62, 7.46 10, 9.31 10.32 C11.16 10.64, 14.42 8.45, 14.79 6.82 C15.17 5.18, 12.78 2.63, 11.57 0.53 C10.36 -1.56, 8.97 -3.87, 7.55 -5.76 C6.12 -7.65, 4.51 -10.23, 3.02 -10.81 C1.54 -11.39, -0.38 -9.91, -1.38 -9.22 C-2.39 -8.53, -2.84 -7.52, -3.01 -6.65 C-3.18 -5.78, -2.9 -5.09, -2.4 -3.99 C-1.89 -2.88, -0.4 -0.66, 0 0 M0 0 C0.62 0.82, 2.14 3.18, 3.7 4.9 C5.25 6.62, 7.46 10, 9.31 10.32 C11.16 10.64, 14.42 8.45, 14.79 6.82 C15.17 5.18, 12.78 2.63, 11.57 0.53 C10.36 -1.56, 8.97 -3.87, 7.55 -5.76 C6.12 -7.65, 4.51 -10.23, 3.02 -10.81 C1.54 -11.39, -0.38 -9.91, -1.38 -9.22 C-2.39 -8.53, -2.84 -7.52, -3.01 -6.65 C-3.18 -5.78, -2.9 -5.09, -2.4 -3.99 C-1.89 -2.88, -0.4 -0.66, 0 0" stroke="#000000" stroke-width="2" fill="none"></path></g></g><g stroke-linecap="round"><g transform="translate(22.532893733522542 161.3363505914034) rotate(0 98.16963117593644 10.392395132071954)" fill-rule="evenodd"><path d="M0 0 L198.32 2.47 L197.95 20.78 L-1.98 17.82 L0 0" stroke="none" stroke-width="0" fill="#fa5252" fill-rule="evenodd"></path><path d="M0 0 C47.45 0.59, 94.91 1.18, 198.32 2.47 M0 0 C42.25 0.53, 84.5 1.05, 198.32 2.47 M198.32 2.47 C198.22 7.22, 198.13 11.96, 197.95 20.78 M198.32 2.47 C198.19 8.75, 198.07 15.03, 197.95 20.78 M197.95 20.78 C147.32 20.03, 96.69 19.28, -1.98 17.82 M197.95 20.78 C120.09 19.63, 42.23 18.47, -1.98 17.82 M-1.98 17.82 C-1.52 13.69, -1.06 9.57, 0 0 M-1.98 17.82 C-1.49 13.45, -1.01 9.09, 0 0 M0 0 C0 0, 0 0, 0 0 M0 0 C0 0, 0 0, 0 0" stroke="#000000" stroke-width="1" fill="none"></path></g></g><g stroke-linecap="round"><g transform="translate(21.83045738024896 181.1803580302655) rotate(357.56335175318964 98.46912484971176 10.392395132071954)" fill-rule="evenodd"><path d="M0 0 L198.92 3.03 L197.95 20.78 L-1.98 17.82 L0 0" stroke="none" stroke-width="0" fill="#82c91e" fill-rule="evenodd"></path><path d="M0 0 C45.07 0.69, 90.13 1.37, 198.92 3.03 M0 0 C40.93 0.62, 81.85 1.25, 198.92 3.03 M198.92 3.03 C198.69 7.24, 198.46 11.44, 197.95 20.78 M198.92 3.03 C198.56 9.54, 198.21 16.05, 197.95 20.78 M197.95 20.78 C141.76 19.95, 85.56 19.12, -1.98 17.82 M197.95 20.78 C140.18 19.93, 82.4 19.07, -1.98 17.82 M-1.98 17.82 C-1.53 13.75, -1.08 9.69, 0 0 M-1.98 17.82 C-1.39 12.55, -0.81 7.28, 0 0 M0 0 C0 0, 0 0, 0 0 M0 0 C0 0, 0 0, 0 0" stroke="#000000" stroke-width="1" fill="none"></path></g></g><g stroke-linecap="round"><g transform="translate(18.281047659436126 204.3520990180329) rotate(9.284534147461759 101.22112848195349 8.020820066803623)" fill-rule="evenodd"><path d="M0 0 L201.99 3.19 L202.44 16.04 L1.09 14.09 L0 0" stroke="none" stroke-width="0" fill="#228be6" fill-rule="evenodd"></path><path d="M0 0 C44.76 0.71, 89.51 1.41, 201.99 3.19 M0 0 C70.75 1.12, 141.5 2.23, 201.99 3.19 M201.99 3.19 C202.12 6.95, 202.25 10.71, 202.44 16.04 M201.99 3.19 C202.09 6.08, 202.19 8.96, 202.44 16.04 M202.44 16.04 C159.67 15.63, 116.9 15.21, 1.09 14.09 M202.44 16.04 C149.7 15.53, 96.95 15.02, 1.09 14.09 M1.09 14.09 C0.73 9.35, 0.36 4.62, 0 0 M1.09 14.09 C0.7 9.04, 0.31 4, 0 0 M0 0 C0 0, 0 0, 0 0 M0 0 C0 0, 0 0, 0 0" stroke="#000000" stroke-width="1" fill="none"></path></g></g><g stroke-linecap="round"><g transform="translate(22.40400803726766 211.3944124310117) rotate(354.68114917987253 98.46912484971176 7.659052092968807)" fill-rule="evenodd"><path d="M0 0 L198.92 2.23 L197.95 15.32 L-1.98 13.13 L0 0" stroke="none" stroke-width="0" fill="#fab005" fill-rule="evenodd"></path><path d="M0 0 C68.17 0.77, 136.35 1.53, 198.92 2.23 M0 0 C43.23 0.49, 86.47 0.97, 198.92 2.23 M198.92 2.23 C198.55 7.26, 198.17 12.28, 197.95 15.32 M198.92 2.23 C198.58 6.86, 198.23 11.48, 197.95 15.32 M197.95 15.32 C126.48 14.54, 55.02 13.75, -1.98 13.13 M197.95 15.32 C157.48 14.88, 117.01 14.43, -1.98 13.13 M-1.98 13.13 C-1.49 9.91, -1.01 6.69, 0 0 M-1.98 13.13 C-1.3 8.6, -0.61 4.07, 0 0 M0 0 C0 0, 0 0, 0 0 M0 0 C0 0, 0 0, 0 0" stroke="#000000" stroke-width="1" fill="none"></path></g></g></svg>